<svg width="1440" height="924" viewBox="0 0 1440 924" fill="none" xmlns="http://www.w3.org/2000/svg">
<mask id="mask0_23_301" style="mask-type:alpha" maskUnits="userSpaceOnUse" x="0" y="0" width="1440" height="731">
<rect width="1440" height="731" fill="#D9D9D9"/>
</mask>
<g mask="url(#mask0_23_301)">
<path d="M-322.107 182.045C-323.321 181.087 -323.643 180.073 -323.001 179L-322.107 182.045C-297.797 201.234 84.0612 198 235.5 198C332.5 198 566.681 148.211 879 263C1147 361.5 1453.97 37.0766 1605 126C1725.82 197.139 1566.25 476.653 1444.22 727H-162.102L-322.107 182.045Z" fill="#F3EDE1"/>
<path d="M-323.001 179C-336.504 201.565 76.4999 198 235.5 198C332.5 198 566.681 148.211 879 263C1147 361.5 1453.97 37.0766 1605 126C1725.82 197.139 1566.25 476.653 1444.22 727H-162.102L-323.001 179Z" stroke="white"/>
<path d="M1171.98 193.301C1224.8 131.01 1369.84 81.4537 1435.76 64.462L1776.45 511.777L1534.18 688.367L933.31 947.076C904.314 890.188 849.156 758.678 860.493 687.749C874.665 599.088 964.006 592.482 976.372 518.703C988.737 444.923 1107.12 425.938 1136.94 387.891C1166.76 349.844 1105.94 271.164 1171.98 193.301Z" fill="#7AADA1"/>
</g>
</svg>
