<svg width="49" height="49" viewBox="0 0 49 49" fill="none" xmlns="http://www.w3.org/2000/svg">
<g clip-path="url(#clip0_20_1064)">
<path d="M25.3669 25.2298C25.4784 25.2298 25.4784 25.2298 25.5922 25.2298C26.7086 25.2329 27.738 25.3004 28.8062 25.6485C28.9237 25.6831 29.0411 25.7178 29.1621 25.7535C30.9509 26.3271 32.2009 27.5105 33.4 28.9024C33.4893 29.0037 33.5786 29.1051 33.668 29.2063C34.3338 29.9657 34.9487 30.7547 35.5459 31.5688C35.7003 31.7782 35.8565 31.9862 36.0131 32.194C36.8519 33.3122 37.6309 34.4653 38.399 35.633C38.5436 35.8519 38.6896 36.0696 38.8371 36.2865C42.6352 41.8745 42.6352 41.8745 42.1561 45.1181C42.0936 45.3709 42.0173 45.6015 41.9176 45.8418C41.8839 45.9238 41.8502 46.0057 41.8155 46.0901C41.2457 47.3386 40.2472 48.121 38.9773 48.6034C38.0224 48.9368 37.0979 49.0468 36.0908 49.0375C35.8947 49.0359 35.6988 49.0375 35.5026 49.0393C34.3602 49.0413 33.2677 48.8701 32.2156 48.4139C32.1485 48.3856 32.0814 48.3574 32.0123 48.3283C31.4486 48.0841 30.9197 47.7888 30.3882 47.4822C27.9208 46.062 24.5648 46.1242 21.8595 46.7873C21.2987 46.9596 20.8007 47.2079 20.2916 47.4968C18.6235 48.4362 17.0905 49.0177 15.152 49.0283C15.0132 49.0294 14.8744 49.0313 14.7356 49.0342C13.0107 49.0695 11.325 48.7147 9.95869 47.5884C8.97174 46.6327 8.51637 45.4723 8.47209 44.1145C8.45603 42.5172 8.91184 41.2954 9.6656 39.9082C9.72148 39.8046 9.77737 39.701 9.83495 39.5942C11.7281 36.1957 13.9562 32.838 16.4605 29.8594C16.5383 29.7667 16.5383 29.7667 16.6176 29.6721C19.0087 26.8321 21.5698 25.2203 25.3669 25.2298Z" fill="#EFC5BD"/>
<path d="M35.1694 0.877448C37.3617 2.47156 38.4222 5.11931 38.903 7.71162C39.0373 8.61668 39.0704 9.506 39.0712 10.4197C39.0712 10.49 39.0713 10.5603 39.0714 10.6327C39.0698 11.7366 39.0151 12.7996 38.7601 13.877C38.7355 13.9842 38.7355 13.9842 38.7104 14.0936C38.1462 16.4835 36.9844 18.8587 34.9021 20.2771C33.748 20.9599 32.5203 21.1265 31.2074 20.9138C30.9694 20.8506 30.7548 20.7716 30.5297 20.6719C30.4468 20.6357 30.3639 20.5994 30.2785 20.562C28.1824 19.5319 26.9663 17.4033 26.2247 15.2793C25.0006 11.5421 25.3358 7.35393 27.0126 3.82219C27.8333 2.22516 29.077 0.825884 30.7689 0.149581C32.3097 -0.313844 33.8566 -0.0146629 35.1694 0.877448Z" fill="#EFC5BD"/>
<path d="M19.2317 0.64707C21.6233 2.2938 22.7619 5.00739 23.2785 7.77546C23.8672 11.2585 23.3378 15.071 21.4373 18.0878C21.1699 18.4586 20.8833 18.8024 20.576 19.1406C20.5211 19.2032 20.4662 19.2659 20.4096 19.3305C19.5949 20.2094 18.3732 20.9029 17.164 20.9817C15.5511 21.0239 14.309 20.5962 13.117 19.483C11.292 17.707 10.4327 15.2943 10.0487 12.8242C10.0309 12.7143 10.0131 12.6043 9.99483 12.4911C9.91781 11.8463 9.92965 11.1937 9.92904 10.5452C9.92894 10.4748 9.92884 10.4044 9.92874 10.3319C9.92977 9.22609 9.99019 8.16204 10.2401 7.08198C10.2539 7.01928 10.2677 6.95658 10.282 6.89198C10.8016 4.58217 11.94 2.1106 13.9725 0.765578C15.6607 -0.202809 17.5199 -0.374107 19.2317 0.64707Z" fill="#EFC5BD"/>
<path d="M46.1289 15.6953C46.2296 15.7525 46.3303 15.8097 46.434 15.8687C47.6142 16.7867 48.1716 17.9639 48.4258 19.4277C48.5054 20.8065 48.5061 22.2052 48.1387 23.5429C48.1125 23.6409 48.1125 23.6409 48.0857 23.7408C47.6174 25.441 46.7936 27.0778 45.6504 28.4238C45.5796 28.5078 45.5088 28.5918 45.4358 28.6784C44.1338 30.1719 42.5479 31.2948 40.5404 31.511C39.4954 31.5616 38.5237 31.1973 37.7549 30.5053C36.3579 28.9686 36.1065 27.2551 36.1636 25.2331C36.3028 22.3276 37.7557 19.5925 39.7168 17.5136C39.7728 17.4526 39.8289 17.3915 39.8866 17.3286C41.3677 15.7674 44.0706 14.5127 46.1289 15.6953Z" fill="#EFC5BD"/>
<path d="M8.01783 16.4229C8.47163 16.7527 8.88121 17.1237 9.28365 17.5137C9.36803 17.5876 9.36803 17.5876 9.45412 17.6629C11.4327 19.4595 12.6746 22.5979 12.8399 25.2209C12.9248 27.1412 12.6745 28.9459 11.3353 30.4157C11.2583 30.4848 11.1813 30.5539 11.102 30.625C11.0329 30.6902 10.9638 30.7553 10.8927 30.8224C9.98115 31.4504 8.93968 31.6132 7.8653 31.421C5.62604 30.9337 3.87799 29.359 2.62551 27.4901C1.84107 26.2591 1.23926 24.9524 0.861775 23.543C0.829453 23.4253 0.797131 23.3076 0.763829 23.1864C0.386577 21.5424 0.333707 19.5763 0.957479 17.9922C0.991035 17.9049 1.02459 17.8175 1.05916 17.7276C1.47139 16.7943 2.23419 15.9418 3.16426 15.5077C4.85554 14.8859 6.60271 15.4389 8.01783 16.4229Z" fill="#EFC5BD"/>
</g>
<defs>
<clipPath id="clip0_20_1064">
<rect width="49" height="49" fill="white"/>
</clipPath>
</defs>
</svg>
