<svg width="48" height="48" viewBox="0 0 48 48" fill="none" xmlns="http://www.w3.org/2000/svg">
<g filter="url(#filter0_d_72_622)">
<path d="M20.2905 38.5H26.0172C26.0839 38.5 26.1479 38.4735 26.1951 38.4263L27.8377 36.7837C28.0194 36.6021 28.2658 36.5 28.5227 36.5C28.8896 36.5 29.2251 36.7073 29.3892 37.0355L30.0846 38.4263C30.1072 38.4715 30.1533 38.5 30.2038 38.5H32.5637C32.8717 38.5 33.1214 38.2503 33.1214 37.9422C33.1214 35.6785 33.6485 33.4459 34.6608 31.4212C35.9579 28.8271 37.5359 26.2014 37.0714 23.1736L36.7074 20.8011C36.5926 20.0526 35.9487 19.5 35.1914 19.5H34.9156C34.2209 19.5 33.6578 20.0632 33.6578 20.7579V21.7476C33.6578 21.8957 33.5377 22.0158 33.3896 22.0158C33.2415 22.0158 33.1214 21.8957 33.1214 21.7476V19.5C33.1214 18.3954 32.226 17.5 31.1214 17.5C30.0169 17.5 29.1214 18.3954 29.1214 19.5V21.7908C29.1214 22.067 28.8976 22.2908 28.6214 22.2908C28.3453 22.2908 28.1214 22.067 28.1214 21.7908V19.5C28.1214 18.3954 27.226 17.5 26.1214 17.5C25.0169 17.5 24.1214 18.3954 24.1214 19.5V22.382C24.1214 22.4596 24.1034 22.5361 24.0686 22.6056C23.8844 22.9741 23.3585 22.9741 23.1742 22.6056C23.1395 22.5361 23.1214 22.4596 23.1214 22.382V12.5C23.1214 11.1965 22.0588 9.5 20.6214 9.5C19.184 9.5 18.1214 11.1965 18.1214 12.5V24.8657C18.1214 25.216 17.8375 25.5 17.4872 25.5C17.2608 25.5 17.0522 25.3803 16.9364 25.1859C16.5514 24.5394 15.6558 23.0729 15.1214 22.5C14.8202 22.177 14.2162 21.9462 13.6287 21.7882C12.7176 21.5433 11.7929 21.9929 11.2695 22.7779C10.602 23.7792 10.734 25.1126 11.585 25.9635L13.2271 27.6057C13.8152 28.1938 14.2584 28.9108 14.5214 29.6998L14.6214 30C14.9502 30.9864 15.5042 31.8828 16.2395 32.618L18.8268 35.2053C19.6557 36.0343 20.1214 37.1586 20.1214 38.3309C20.1214 38.4243 20.1971 38.5 20.2905 38.5Z" fill="white"/>
<path d="M20.2905 38.5H26.0172C26.0839 38.5 26.1479 38.4735 26.1951 38.4263L27.8377 36.7837C28.0194 36.6021 28.2658 36.5 28.5227 36.5C28.8896 36.5 29.2251 36.7073 29.3892 37.0355L30.0846 38.4263C30.1072 38.4715 30.1533 38.5 30.2038 38.5H32.5637C32.8717 38.5 33.1214 38.2503 33.1214 37.9422C33.1214 35.6785 33.6485 33.4459 34.6608 31.4212C35.9579 28.8271 37.5359 26.2014 37.0714 23.1736L36.7074 20.8011C36.5926 20.0526 35.9487 19.5 35.1914 19.5H34.9156C34.2209 19.5 33.6578 20.0632 33.6578 20.7579V21.7476C33.6578 21.8957 33.5377 22.0158 33.3896 22.0158C33.2415 22.0158 33.1214 21.8957 33.1214 21.7476V19.5C33.1214 18.3954 32.226 17.5 31.1214 17.5C30.0169 17.5 29.1214 18.3954 29.1214 19.5V21.7908C29.1214 22.067 28.8976 22.2908 28.6214 22.2908C28.3453 22.2908 28.1214 22.067 28.1214 21.7908V19.5C28.1214 18.3954 27.226 17.5 26.1214 17.5C25.0169 17.5 24.1214 18.3954 24.1214 19.5V22.382C24.1214 22.4596 24.1034 22.5361 24.0686 22.6056C23.8844 22.9741 23.3585 22.9741 23.1742 22.6056C23.1395 22.5361 23.1214 22.4596 23.1214 22.382V12.5C23.1214 11.1965 22.0588 9.5 20.6214 9.5C19.184 9.5 18.1214 11.1965 18.1214 12.5V24.8657C18.1214 25.216 17.8375 25.5 17.4872 25.5C17.2608 25.5 17.0522 25.3803 16.9364 25.1859C16.5514 24.5394 15.6558 23.0729 15.1214 22.5C14.8202 22.177 14.2162 21.9462 13.6287 21.7882C12.7176 21.5433 11.7929 21.9929 11.2695 22.7779C10.602 23.7792 10.734 25.1126 11.585 25.9635L13.2271 27.6057C13.8152 28.1938 14.2584 28.9108 14.5214 29.6998L14.6214 30C14.9502 30.9864 15.5042 31.8828 16.2395 32.618L18.8268 35.2053C19.6557 36.0343 20.1214 37.1586 20.1214 38.3309C20.1214 38.4243 20.1971 38.5 20.2905 38.5Z" stroke="black" stroke-width="1.2"/>
</g>
<line x1="23.6757" y1="26.2163" x2="23.6757" y2="33.9131" stroke="black" stroke-width="1.2"/>
<line x1="27.6227" y1="26.2163" x2="27.6227" y2="33.9131" stroke="black" stroke-width="1.2"/>
<line x1="31.6686" y1="26.2163" x2="31.6686" y2="33.9131" stroke="black" stroke-width="1.2"/>
<defs>
<filter id="filter0_d_72_622" x="6.44536" y="7.0999" width="33.1083" height="35.8002" filterUnits="userSpaceOnUse" color-interpolation-filters="sRGB">
<feFlood flood-opacity="0" result="BackgroundImageFix"/>
<feColorMatrix in="SourceAlpha" type="matrix" values="0 0 0 0 0 0 0 0 0 0 0 0 0 0 0 0 0 0 127 0" result="hardAlpha"/>
<feOffset dx="-1" dy="1"/>
<feGaussianBlur stdDeviation="1.4"/>
<feColorMatrix type="matrix" values="0 0 0 0 0 0 0 0 0 0 0 0 0 0 0 0 0 0 0.6 0"/>
<feBlend mode="normal" in2="BackgroundImageFix" result="effect1_dropShadow_72_622"/>
<feBlend mode="normal" in="SourceGraphic" in2="effect1_dropShadow_72_622" result="shape"/>
</filter>
</defs>
</svg>
