<svg width="34" height="34" viewBox="0 0 34 34" fill="none" xmlns="http://www.w3.org/2000/svg">
<path d="M4.6325 1.35999C4.30844 1.42108 4.07469 1.70795 4.08 2.03999C4.08 3.91264 2.55266 5.43999 0.68 5.43999C0.305469 5.43999 0 5.74545 0 6.11999V27.88C0 28.2545 0.305469 28.56 0.68 28.56C2.55266 28.56 4.08 30.0873 4.08 31.96C4.08 32.3345 4.38547 32.64 4.76 32.64H29.24C29.6145 32.64 29.92 32.3345 29.92 31.96C29.92 30.0873 31.4473 28.56 33.32 28.56C33.6945 28.56 34 28.2545 34 27.88V6.11999C34 5.74545 33.6945 5.43999 33.32 5.43999C31.4473 5.43999 29.92 3.91264 29.92 2.03999C29.92 1.66545 29.6145 1.35999 29.24 1.35999H4.76C4.73875 1.35999 4.7175 1.35999 4.69625 1.35999C4.675 1.35999 4.65375 1.35999 4.6325 1.35999ZM5.29125 2.71999H28.7087C29.0195 4.77061 30.5894 6.34045 32.64 6.65124V27.3487C30.5894 27.6595 29.0195 29.2294 28.7087 31.28H5.29125C4.98047 29.2294 3.41062 27.6595 1.36 27.3487V6.65124C3.41062 6.34045 4.98047 4.77061 5.29125 2.71999ZM7.48 8.90373L9.3075 17.0637V17.1275H10.8162L12.7075 8.96748H11.2838L10.6038 12.58C10.3992 13.5309 10.2717 14.5562 10.1363 15.5762H10.0725C9.93703 14.5562 9.71922 13.4645 9.58375 12.58L8.90375 8.90373H7.48ZM14.0675 8.90373V17.0637H15.3638V8.90373H14.0675ZM19.1675 8.90373C17.672 8.90373 16.7875 9.8653 16.7875 11.1562C16.7875 12.0408 17.4755 12.7765 18.36 13.3875C19.04 13.863 19.4438 14.2162 19.4438 14.8962C19.4438 15.5762 19.048 16.0437 18.2325 16.0437C17.757 16.0437 17.2072 15.9083 16.9363 15.7037L16.66 16.7875C16.9309 16.992 17.5366 17.1275 18.1475 17.1275C19.643 17.1275 20.6763 16.243 20.6763 14.7475C20.6763 13.932 20.2725 13.1325 19.2525 12.4525C18.437 11.977 18.0837 11.6184 18.0837 11.0075C18.0837 10.463 18.4184 9.98748 19.1675 9.98748C19.643 9.98748 19.983 10.1283 20.1875 10.2637L20.4 9.17998C20.1955 9.04452 19.712 8.90373 19.1675 8.90373ZM23.3325 8.90373L21.4837 17.0637H22.78L23.1838 14.96H24.82L25.2238 17.0637H26.52L24.82 8.90373H23.3325ZM24.0125 10.2H24.0763C24.1453 10.7445 24.217 11.483 24.3525 12.0275L24.6712 13.8762H23.3962L23.7362 12.0275C23.8053 11.552 23.9434 10.7445 24.0125 10.2ZM5.9925 20.4C5.61797 20.4345 5.34172 20.7692 5.37625 21.1437C5.41078 21.5183 5.74547 21.7945 6.12 21.76H27.88C28.1244 21.7626 28.3528 21.6351 28.4777 21.4226C28.5998 21.2101 28.5998 20.9498 28.4777 20.7373C28.3528 20.5248 28.1244 20.3973 27.88 20.4H6.12C6.09875 20.4 6.0775 20.4 6.05625 20.4C6.035 20.4 6.01375 20.4 5.9925 20.4ZM5.9925 24.48C5.61797 24.5145 5.34172 24.8492 5.37625 25.2237C5.41078 25.5983 5.74547 25.8745 6.12 25.84H19.04C19.2844 25.8426 19.5128 25.7151 19.6377 25.5026C19.7598 25.2901 19.7598 25.0298 19.6377 24.8173C19.5128 24.6048 19.2844 24.4773 19.04 24.48H6.12C6.09875 24.48 6.0775 24.48 6.05625 24.48C6.035 24.48 6.01375 24.48 5.9925 24.48ZM22.9925 24.48C22.618 24.5145 22.3417 24.8492 22.3762 25.2237C22.4108 25.5983 22.7455 25.8745 23.12 25.84H27.88C28.1244 25.8426 28.3528 25.7151 28.4777 25.5026C28.5998 25.2901 28.5998 25.0298 28.4777 24.8173C28.3528 24.6048 28.1244 24.4773 27.88 24.48H23.12C23.0988 24.48 23.0775 24.48 23.0562 24.48C23.035 24.48 23.0138 24.48 22.9925 24.48Z" fill="#231F20"/>
</svg>
