<svg width="34" height="34" viewBox="0 0 34 34" fill="none" xmlns="http://www.w3.org/2000/svg">
<path d="M6.11996 0.680054C5.00167 0.680054 4.07996 1.60177 4.07996 2.72005V31.2801C4.07996 32.3983 5.00167 33.3201 6.11996 33.3201H27.88C28.9982 33.3201 29.92 32.3983 29.92 31.2801V2.72005C29.92 1.60177 28.9982 0.680054 27.88 0.680054H6.11996ZM6.11996 2.04005H27.88C28.2571 2.04005 28.56 2.34287 28.56 2.72005V31.2801C28.56 31.6572 28.2571 31.9601 27.88 31.9601H6.11996C5.74277 31.9601 5.43996 31.6572 5.43996 31.2801V2.72005C5.43996 2.34287 5.74277 2.04005 6.11996 2.04005ZM17 6.12005C12.8881 6.12005 9.51996 9.48818 9.51996 13.6001C9.51996 17.7119 12.8881 21.0801 17 21.0801C21.1118 21.0801 24.48 17.7119 24.48 13.6001C24.48 9.48818 21.1118 6.12005 17 6.12005ZM16.32 7.69255V12.9201H14.3225C14.4021 11.4166 14.7156 10.0566 15.1937 9.09505C15.5364 8.40177 15.9321 7.93958 16.32 7.69255ZM17.68 7.69255C18.0678 7.93958 18.4636 8.40177 18.8062 9.09505C19.2843 10.0566 19.5978 11.4166 19.6775 12.9201H17.68V7.69255ZM14.1525 8.1813C14.094 8.2849 14.0356 8.39115 13.9825 8.50005C13.3875 9.69802 13.0209 11.2307 12.9412 12.9201H10.9225C11.1536 10.8694 12.402 9.10568 14.1525 8.1813ZM19.8475 8.1813C21.5979 9.10568 22.8464 10.8694 23.0775 12.9201H21.0587C20.979 11.2307 20.6125 9.69802 20.0175 8.50005C19.9643 8.39115 19.9059 8.2849 19.8475 8.1813ZM10.9225 14.2801H12.9412C13.0209 15.9694 13.3875 17.5021 13.9825 18.7001C14.0356 18.809 14.094 18.9152 14.1525 19.0188C12.402 18.0944 11.1536 16.3307 10.9225 14.2801ZM14.3225 14.2801H16.32V19.5076C15.9321 19.2605 15.5364 18.7983 15.1937 18.1051C14.7156 17.1435 14.4021 15.7835 14.3225 14.2801ZM17.68 14.2801H19.6775C19.5978 15.7835 19.2843 17.1435 18.8062 18.1051C18.4636 18.7983 18.0678 19.2605 17.68 19.5076V14.2801ZM21.0587 14.2801H23.0775C22.8464 16.3307 21.5979 18.0944 19.8475 19.0188C19.9059 18.9152 19.9643 18.809 20.0175 18.7001C20.6125 17.5021 20.979 15.9694 21.0587 14.2801ZM8.71246 25.8401C8.33792 25.8746 8.06168 26.2093 8.09621 26.5838C8.13074 26.9583 8.46543 27.2346 8.83996 27.2001H25.16C25.4043 27.2027 25.6328 27.0752 25.7576 26.8627C25.8798 26.6502 25.8798 26.3899 25.7576 26.1774C25.6328 25.9649 25.4043 25.8374 25.16 25.8401H8.83996C8.81871 25.8401 8.79746 25.8401 8.77621 25.8401C8.75496 25.8401 8.73371 25.8401 8.71246 25.8401Z" fill="#231F20"/>
</svg>
