<svg width="34" height="34" viewBox="0 0 34 34" fill="none" xmlns="http://www.w3.org/2000/svg">
<path d="M4.76001 1.36011V32.6401H5.44001H29.24V1.36011H4.76001ZM6.12001 2.72011H27.88V31.2801H6.12001V2.72011ZM16.32 6.12011V9.02339L13.8072 7.57175L13.1272 8.74847L15.6413 10.2001L13.1272 11.6517L13.8072 12.8285L16.32 11.3768V14.2801H17.68V11.3768L20.1928 12.8285L20.8728 11.6517L18.3587 10.2001L20.8728 8.74847L20.1928 7.57175L17.68 9.02339V6.12011H16.32ZM9.52001 17.6801V19.0401H24.48V17.6801H9.52001ZM9.52001 21.7601V23.1201H24.48V21.7601H9.52001ZM9.52001 25.8401V27.2001H12.24H14.28H17.68V25.8401H14.28H12.24H9.52001Z" fill="black"/>
</svg>
