<svg width="34" height="34" viewBox="0 0 34 34" fill="none" xmlns="http://www.w3.org/2000/svg">
<path d="M4.07999 6.12012C2.58452 6.12012 1.35999 7.34465 1.35999 8.84012V25.1601C1.35999 26.6556 2.58452 27.8801 4.07999 27.8801H29.92C31.4155 27.8801 32.64 26.6556 32.64 25.1601V8.84012C32.64 7.34465 31.4155 6.12012 29.92 6.12012H4.07999ZM4.07999 7.48012H29.92C30.6797 7.48012 31.28 8.08043 31.28 8.84012V25.1601C31.28 25.9198 30.6797 26.5201 29.92 26.5201H4.07999C3.3203 26.5201 2.71999 25.9198 2.71999 25.1601V8.84012C2.71999 8.08043 3.3203 7.48012 4.07999 7.48012ZM11.4962 10.2001C9.98748 10.2267 8.92233 10.9412 8.49998 11.9426C8.12545 12.8351 8.19983 13.8418 8.41498 14.8114C8.40967 14.8193 8.4203 14.8246 8.41498 14.8326C8.29545 15.0371 8.1892 15.34 8.20248 15.7039C8.22108 16.2271 8.41498 16.6203 8.62748 16.8726C8.73905 17.0054 8.78686 17.0187 8.88248 17.0851C8.99139 17.4225 9.11092 17.7651 9.28623 17.9989C9.40311 18.1556 9.53592 18.23 9.64748 18.3389C9.65545 18.6284 9.66342 18.8967 9.64748 19.1676C9.5917 19.2765 9.49342 19.3934 9.17998 19.5501C8.83733 19.7228 8.33795 19.8981 7.81998 20.1239C7.30202 20.3496 6.75217 20.6312 6.28999 21.1014C5.8278 21.5715 5.49045 22.2462 5.43999 23.0776C5.42936 23.2662 5.49577 23.4495 5.62327 23.585C5.75342 23.7231 5.93139 23.8001 6.11999 23.8001H17C17.1886 23.8001 17.3665 23.7231 17.4967 23.585C17.6242 23.4495 17.6906 23.2662 17.68 23.0776C17.6295 22.2462 17.2922 21.5715 16.83 21.1014C16.3678 20.6312 15.818 20.3496 15.3 20.1239C14.782 19.8981 14.2826 19.7228 13.94 19.5501C13.6133 19.3854 13.499 19.2579 13.4512 19.1464C13.438 18.8834 13.4645 18.6204 13.4725 18.3389C13.6 18.2167 13.762 18.1396 13.8762 17.9776C14.0436 17.7359 14.1445 17.3932 14.2375 17.0639C14.4659 16.8939 14.8962 16.5273 14.8962 15.7676C14.8962 15.4489 14.7369 15.255 14.6412 15.0239C14.8006 14.5006 15.0025 13.7196 14.9175 12.8776C14.8697 12.4181 14.7422 11.9453 14.4075 11.5389C14.1312 11.2015 13.669 11.0156 13.175 10.9439C12.7819 10.5136 12.2347 10.2001 11.5175 10.2001C11.5095 10.2001 11.5042 10.2001 11.4962 10.2001ZM11.5175 11.5601C11.5281 11.5601 11.5281 11.5601 11.5387 11.5601C11.969 11.5707 12.2586 11.8204 12.3037 11.9001C12.4233 12.1046 12.6411 12.2348 12.8775 12.2401C13.183 12.2401 13.2573 12.3039 13.345 12.4101C13.4326 12.5164 13.5283 12.7315 13.5575 13.0264C13.6159 13.6161 13.4353 14.4315 13.3237 14.7689C13.2467 14.9946 13.2945 15.247 13.4512 15.4276C13.4433 15.4356 13.5362 15.5896 13.5362 15.7676C13.5362 15.8925 13.3237 16.0864 13.3237 16.0864C13.1537 16.1873 13.0395 16.36 13.005 16.5539C12.9731 16.777 12.8748 17.0134 12.75 17.1914C12.6251 17.3693 12.4578 17.5075 12.495 17.4889C12.2665 17.6004 12.1178 17.8289 12.1125 18.0839C12.1125 18.4823 12.062 18.8701 12.1125 19.4226C12.1205 19.4811 12.1337 19.5368 12.155 19.5926C12.3781 20.1876 12.8748 20.525 13.345 20.7614C13.8151 20.9978 14.2959 21.1811 14.7475 21.3776C15.199 21.5742 15.5895 21.7893 15.8525 22.0576C15.9428 22.1506 15.9561 22.3286 16.0225 22.4401H7.09749C7.16389 22.3286 7.17717 22.1506 7.26748 22.0576C7.53045 21.7893 7.92092 21.5742 8.37248 21.3776C8.82405 21.1811 9.30483 20.9978 9.77498 20.7614C10.2451 20.525 10.7445 20.1903 10.965 19.5926C10.9862 19.5368 10.9995 19.4811 11.0075 19.4226C11.058 18.8675 11.0075 18.4823 11.0075 18.0839C11.0101 17.8395 10.88 17.6111 10.6675 17.4889C10.6781 17.4995 10.6728 17.5021 10.6462 17.4889C10.6064 17.4517 10.4736 17.3295 10.37 17.1914C10.2239 16.9975 10.0964 16.7345 10.0725 16.5539C10.038 16.3307 9.89452 16.1395 9.68998 16.0439C9.68998 16.0439 9.71389 16.0545 9.66873 16.0014C9.62358 15.9482 9.57045 15.8659 9.56248 15.6401C9.55983 15.5711 9.62624 15.4701 9.62624 15.4701C9.79624 15.2975 9.86264 15.0451 9.79624 14.8114C9.55717 13.8923 9.5253 13.0157 9.75373 12.4739C9.97952 11.9373 10.3806 11.5867 11.5175 11.5601ZM19.5925 12.9201C19.218 12.9546 18.9417 13.2893 18.9762 13.6639C19.0108 14.0384 19.3455 14.3146 19.72 14.2801H27.88C28.1244 14.2828 28.3528 14.1553 28.4776 13.9428C28.5998 13.7303 28.5998 13.47 28.4776 13.2575C28.3528 13.045 28.1244 12.9175 27.88 12.9201H19.72C19.6987 12.9201 19.6775 12.9201 19.6562 12.9201C19.635 12.9201 19.6137 12.9201 19.5925 12.9201ZM19.5925 16.3201C19.218 16.3546 18.9417 16.6893 18.9762 17.0639C19.0108 17.4384 19.3455 17.7146 19.72 17.6801H27.88C28.1244 17.6828 28.3528 17.5553 28.4776 17.3428C28.5998 17.1303 28.5998 16.87 28.4776 16.6575C28.3528 16.445 28.1244 16.3175 27.88 16.3201H19.72C19.6987 16.3201 19.6775 16.3201 19.6562 16.3201C19.635 16.3201 19.6137 16.3201 19.5925 16.3201ZM19.5925 19.7201C19.218 19.7546 18.9417 20.0893 18.9762 20.4639C19.0108 20.8384 19.3455 21.1146 19.72 21.0801H27.88C28.1244 21.0828 28.3528 20.9553 28.4776 20.7428C28.5998 20.5303 28.5998 20.27 28.4776 20.0575C28.3528 19.845 28.1244 19.7175 27.88 19.7201H19.72C19.6987 19.7201 19.6775 19.7201 19.6562 19.7201C19.635 19.7201 19.6137 19.7201 19.5925 19.7201Z" fill="white"/>
</svg>
